<svg xmlns="http://www.w3.org/2000/svg" width="24" height="24" viewBox="0 0 24 24" fill="none" stroke="currentColor" stroke-width="2" stroke-linecap="round" stroke-linejoin="round"><path d="M12 10.8c-1.87-2.07-5.35-6.33-6.7-7.45C4.3 2.55 2 1.67 2 4.75c0 .61.33 5.15.52 5.89.66 2.54 3.06 3.19 5.24 2.8-3.82.69-4.79 2.96-2.69 5.23C7.46 21.26 10.47 20 12 16.5c1.53 3.5 4.54 4.76 6.93 2.17 2.1-2.27 1.13-4.54-2.69-5.23 2.18.39 4.58-.26 5.24-2.8.19-.74.52-5.28.52-5.89 0-3.08-2.3-2.2-3.3-1.4-1.35 1.12-4.83 5.38-6.7 7.45z"/></svg>
